<svg id="Capa_1" data-name="Capa 1" xmlns="http://www.w3.org/2000/svg" viewBox="0 0 732.86 118.45"><title>world-book-day</title><path d="M87.58,444.17c0-5,0-9.25,0-13.55,0-2-.13-4.09,2-5.22,2.35-1.22,4.12,0,5.84,1.48,10.85,9.16,18.66,20.65,25.25,33.06,1.08,2.05,2.1,4.13,3.32,6.52,2-1.75,2.63-4.2,3.73-6.25,6.45-12.12,14-23.36,24.44-32.47,1.83-1.62,3.65-3.72,6.54-2.47s2.28,4.12,2.31,6.53c.06,3.92,0,7.85,0,12.43,4.48-2.93,8.26-5.55,12.18-7.91,4.62-2.79,7.2-1.31,7.3,4.1.09,4.82.16,9.66,0,14.47-.1,2.65.8,3.53,3.41,3.38,3.15-.19,6.32-.06,9.48,0,6.24,0,6.95.7,6.95,6.81,0,24-.09,47.92.09,71.87,0,4.8-1.62,6.46-6.37,6.43-23.29-.14-46.58-.05-69.87-.05H55.83c-6.86,0-7.41-.54-7.41-7.35q0-35.19,0-70.38c0-6.62.71-7.3,7.5-7.32,12.14-.05,12.14-.05,12.14-12,0-2.17-.08-4.33,0-6.49.24-4.52,2.65-6,6.57-3.78C78.81,438.32,82.75,441.08,87.58,444.17Z" transform="translate(-48.41 -424.89)"/><path d="M113.86,535.61c-14.13,0-28.35,0-42.58,0-4.79,0-11.21,1.6-13.93-.83-3.15-2.82-.93-9.37-1-14.28-.12-16.63.07-33.25-.13-49.87,0-3.66.77-5.26,4.59-4.61a14,14,0,0,0,4,0c2.76-.33,3.32,1,3.29,3.48-.11,9.47,0,18.95-.09,28.42,0,3.39,1,5.31,4.32,6.82,15.15,6.79,28.26,16.65,40.23,28.07C113.23,533.43,114.28,533.9,113.86,535.61Z" transform="translate(-48.41 -424.89)" fill="#fefefe"/><path d="M133.45,535.6a149.19,149.19,0,0,1,26.38-21.8,87,87,0,0,1,16.52-9.1c3.49-1.35,4.3-3.51,4.25-6.85-.12-9.14.11-18.28-.11-27.41-.09-3.41.77-4.95,4.36-4.44a17.23,17.23,0,0,0,4.48,0c2.77-.35,3.27,1,3.26,3.44-.08,20.93,0,41.86,0,62.8,0,1.67.25,3.38-2.36,3.38C171.67,535.59,153.14,535.6,133.45,535.6Z" transform="translate(-48.41 -424.89)" fill="#fefefe"/><path d="M120.45,521.1c-7.75-10.39-15.18-20.39-23.15-30-1-1.25-2.08-2.4-2.07-4.33.08-16.09,0-32.18,0-49.19A58.91,58.91,0,0,1,106.36,451c3.3,5.17,6.21,10.59,9.24,15.92a37.68,37.68,0,0,1,5,20.93C120.08,498.94,120.45,510,120.45,521.1Z" transform="translate(-48.41 -424.89)" fill="#fefefe"/><path d="M128.26,522.59c0-15.87-1.37-30.43.46-44.57,1.32-10.14,8.17-19.09,14-27.78a67.82,67.82,0,0,1,9.76-12c1.56.89.8,2.39.8,3.55.07,14.47.05,28.95,0,43.43,0,1.61.27,3.21-1,4.7A309.87,309.87,0,0,0,128.26,522.59Z" transform="translate(-48.41 -424.89)" fill="#fefefe"/><path d="M75.63,445.54c4.1,2.93,7.42,5.3,10.73,7.69,1.64,1.18,1.2,3,1.2,4.58,0,9.63.15,19.27,0,28.9a12,12,0,0,0,3.1,8.53c4.38,5.21,8.5,10.63,12.62,16,.93,1.23,2.47,2.27,2.07,4.75-9-6.84-18-13-28-17.64-2.08-1-1.63-2.65-1.63-4.23C75.62,478.38,75.63,462.6,75.63,445.54Z" transform="translate(-48.41 -424.89)" fill="#fdfdfd"/><path d="M143,514.35c5-6.33,9.76-12.74,14.89-18.88a12.58,12.58,0,0,0,3.29-9c-.24-8.64.3-17.31-.22-25.93-.31-5,1.43-8.14,5.53-10.5,2-1.15,3.83-2.54,6.56-4.38V494c0,1.78.37,3.57-1.89,4.6-9.27,4.19-17.64,9.86-25.76,15.94C144.8,514.94,144.23,515.21,143,514.35Z" transform="translate(-48.41 -424.89)" fill="#fdfdfd"/><path d="M208.43,455.17h9q7.89,0,11.34,3.09a10.06,10.06,0,0,1,3.46,7.86q0,5.16-5,8.3,5.72,2.25,5.71,8.58a10.34,10.34,0,0,1-3.54,8.17,13.69,13.69,0,0,1-9.35,3.11h-11.6Zm8.88,7.5v8.43q5.94-.14,5.94-4.13a3.67,3.67,0,0,0-1.42-3.31A8.77,8.77,0,0,0,217.31,462.67Zm0,15.52v8.47a10.59,10.59,0,0,0,5.05-1,3.45,3.45,0,0,0,1.68-3.24q0-4.19-6-4.19Z" transform="translate(-48.41 -424.89)"/><path d="M238.08,459.24a4.54,4.54,0,1,1,1.33,3.18A4.32,4.32,0,0,1,238.08,459.24Zm.23,8.09h8.53v26.95h-8.53Z" transform="translate(-48.41 -424.89)"/><path d="M253.55,453H262v17.58h.15a14.4,14.4,0,0,1,2.91-3.14,5.83,5.83,0,0,1,3.51-1q3.57,0,6,3.73t2.4,10.71q0,6.45-2.3,10.37t-6,3.93c-2.54,0-4.71-1.47-6.53-4.4H262v3.49h-8.49Zm15,27.66c0-4.48-1.15-6.71-3.43-6.71-2.05,0-3.08,2.15-3.08,6.47a13.57,13.57,0,0,0,.81,5.44,2.68,2.68,0,0,0,2.56,1.71Q268.54,487.57,268.55,480.66Z" transform="translate(-48.41 -424.89)"/><path d="M282.23,453h8.52v41.28h-8.52Z" transform="translate(-48.41 -424.89)"/><path d="M297.46,459.24a4.49,4.49,0,1,1,4.49,4.51,4.27,4.27,0,0,1-3.15-1.33A4.35,4.35,0,0,1,297.46,459.24Zm.24,8.09h8.52v26.95H297.7Z" transform="translate(-48.41 -424.89)"/><path d="M323.07,466.39q5.82,0,8.88,3.88t3,10.8q0,6.76-3.16,10.47a10.91,10.91,0,0,1-8.76,3.71,10.49,10.49,0,0,1-8.51-3.78q-3.15-3.78-3.15-10.4,0-6.92,3-10.8T323.07,466.39Zm.06,21.24a2.68,2.68,0,0,0,2.5-1.55,12,12,0,0,0,.84-5.31,11.8,11.8,0,0,0-.82-5.21,2.65,2.65,0,0,0-2.46-1.5,2.72,2.72,0,0,0-2.47,1.45q-.84,1.46-.84,5.32Q319.88,487.63,323.13,487.63Z" transform="translate(-48.41 -424.89)"/><path d="M341.06,460.15h8.52v7.18h3.31v7.09h-3.37v19.86h-8.46V474.36h-3.23v-7h3.23Z" transform="translate(-48.41 -424.89)"/><path d="M369.88,486.05h7.18q-2,9.07-10.25,9.08a9.7,9.7,0,0,1-8.12-3.9q-3-3.9-3-10.75,0-6.39,3-10.24a9.55,9.55,0,0,1,7.94-3.85,10.13,10.13,0,0,1,5.75,1.86,10.76,10.76,0,0,1,4,4.93q1.26,3.09,1.4,9.7h-14.2c.11,4,1.23,6,3.34,6a2.79,2.79,0,0,0,1.93-.79A3.28,3.28,0,0,0,369.88,486.05Zm-6.18-7.8h6.18a10.12,10.12,0,0,0-.79-4.2,2.32,2.32,0,0,0-2.22-1.36,2.55,2.55,0,0,0-2.43,1.31A9.18,9.18,0,0,0,363.7,478.25Z" transform="translate(-48.41 -424.89)"/><path d="M397.39,486.05v7a10.93,10.93,0,0,1-6.12,2.05,8.48,8.48,0,0,1-7.28-3.94q-2.73-3.94-2.74-10.59a17.36,17.36,0,0,1,2.81-10.26,8.59,8.59,0,0,1,7.27-3.95,10.33,10.33,0,0,1,6.12,2.19v7a6.73,6.73,0,0,0-3.1-.91A4,4,0,0,0,391,476.3a7.12,7.12,0,0,0-1.26,4.41,7.54,7.54,0,0,0,1.23,4.57,3.91,3.91,0,0,0,3.34,1.67A6.88,6.88,0,0,0,397.39,486.05Z" transform="translate(-48.41 -424.89)"/><path d="M415.82,494.28v-3.55h-.11a13.89,13.89,0,0,1-3,3.37,5.54,5.54,0,0,1-3.41,1.09q-3.84,0-6.12-3.93t-2.29-10.66q0-6.48,2.32-10.32t6.09-3.83a5.68,5.68,0,0,1,3.43,1,13.19,13.19,0,0,1,2.93,3.23h.11v-3.36h8.53v26.95Zm0-13.62c0-4.48-1.09-6.71-3.28-6.71s-3.31,2.23-3.31,6.71c0,4.64,1.14,7,3.43,7C414.77,487.63,415.82,485.3,415.82,480.66Z" transform="translate(-48.41 -424.89)"/><path d="M446.44,455.17h11a13,13,0,0,1,9.32,3.31,11.44,11.44,0,0,1,3.52,8.73q0,5.71-3.56,9t-9.86,3.24h-1.53v14.88h-8.87Zm8.87,7.5v9.23a7.44,7.44,0,0,0,4.41-1.15,4,4,0,0,0,1.42-3.42,4.17,4.17,0,0,0-1.37-3.56A7.69,7.69,0,0,0,455.31,462.67Z" transform="translate(-48.41 -424.89)"/><path d="M475.82,467.33h8.53v17.34a3.8,3.8,0,0,0,.63,2.24,2,2,0,0,0,1.71.89q2.46,0,2.46-3.6V467.33h8.53v15.61q0,6-2.79,9.1c-1.85,2.1-4.53,3.15-8,3.15q-5.87,0-8.45-3.23a12.41,12.41,0,0,1-2.6-8Zm6.51-3.84,4.1-8.76h9.23l-8.09,8.76Z" transform="translate(-48.41 -424.89)"/><path d="M504,453h8.49v17.58h.15a14.4,14.4,0,0,1,2.91-3.14,5.83,5.83,0,0,1,3.51-1q3.57,0,6,3.73t2.4,10.71q0,6.45-2.3,10.37t-6,3.93c-2.54,0-4.71-1.47-6.53-4.4h-.15v3.49H504Zm15,27.66c0-4.48-1.15-6.71-3.43-6.71-2,0-3.08,2.15-3.08,6.47a13.57,13.57,0,0,0,.81,5.44,2.68,2.68,0,0,0,2.56,1.71Q519,487.57,519,480.66Z" transform="translate(-48.41 -424.89)"/><path d="M532.66,453h8.52v41.28h-8.52Z" transform="translate(-48.41 -424.89)"/><path d="M547.89,459.24a4.49,4.49,0,1,1,4.49,4.51,4.27,4.27,0,0,1-3.15-1.33A4.35,4.35,0,0,1,547.89,459.24Zm.24,8.09h8.52v26.95h-8.52Z" transform="translate(-48.41 -424.89)"/><path d="M578,486.05v7a10.93,10.93,0,0,1-6.12,2.05,8.47,8.47,0,0,1-7.28-3.94q-2.75-3.94-2.74-10.59a17.36,17.36,0,0,1,2.81-10.26,8.59,8.59,0,0,1,7.27-3.95,10.33,10.33,0,0,1,6.12,2.19v7a6.76,6.76,0,0,0-3.11-.91,4,4,0,0,0-3.31,1.65,7.12,7.12,0,0,0-1.26,4.41,7.54,7.54,0,0,0,1.23,4.57,3.92,3.92,0,0,0,3.34,1.67A6.92,6.92,0,0,0,578,486.05Z" transform="translate(-48.41 -424.89)"/><path d="M596.41,494.28v-3.55h-.12a13.88,13.88,0,0,1-3,3.37,5.58,5.58,0,0,1-3.41,1.09q-3.84,0-6.13-3.93t-2.28-10.66q0-6.48,2.31-10.32c1.54-2.55,3.58-3.83,6.1-3.83a5.65,5.65,0,0,1,3.42,1,12.81,12.81,0,0,1,2.93,3.23h.12v-3.36h8.53v26.95Zm0-13.62c0-4.48-1.1-6.71-3.28-6.71s-3.31,2.23-3.31,6.71c0,4.64,1.14,7,3.42,7C595.35,487.63,596.41,485.3,596.41,480.66Z" transform="translate(-48.41 -424.89)"/><path d="M647.56,485.05v9.29a16.74,16.74,0,0,1-5,.91A15.43,15.43,0,0,1,630,489.46q-4.8-5.79-4.79-15.22,0-8.76,4.83-14.46a15.34,15.34,0,0,1,12.22-5.7,17.61,17.61,0,0,1,5.27.76v9.32a15.12,15.12,0,0,0-4.8-.85,6.87,6.87,0,0,0-5.75,3.17,13.4,13.4,0,0,0-2.28,8q0,5.28,2.3,8.34a7.29,7.29,0,0,0,6.14,3.06A13.51,13.51,0,0,0,647.56,485.05Z" transform="translate(-48.41 -424.89)"/><path d="M665,486.05h7.18q-2.06,9.07-10.25,9.08a9.68,9.68,0,0,1-8.12-3.9q-3-3.9-3-10.75,0-6.39,3-10.24a9.54,9.54,0,0,1,7.94-3.85,10.1,10.1,0,0,1,5.74,1.86,10.72,10.72,0,0,1,4,4.93c.84,2.06,1.3,5.29,1.4,9.7H658.72q.18,6,3.34,6a2.8,2.8,0,0,0,1.94-.79A3.38,3.38,0,0,0,665,486.05Zm-6.18-7.8H665a10.29,10.29,0,0,0-.79-4.2,2.34,2.34,0,0,0-2.23-1.36,2.57,2.57,0,0,0-2.43,1.31A9.2,9.2,0,0,0,658.84,478.25Z" transform="translate(-48.41 -424.89)"/><path d="M686.41,467.33V471h.14q3-4.55,7.3-4.54a5.68,5.68,0,0,1,4.47,1.87,7.4,7.4,0,0,1,1.65,5.07v20.89h-8.52V477.67a3.73,3.73,0,0,0-.65-2.26,2,2,0,0,0-1.67-.88q-2.71,0-2.72,3.43v16.32h-8.5V467.33Z" transform="translate(-48.41 -424.89)"/><path d="M707.3,460.15h8.52v7.18h3.31v7.09h-3.37v19.86H707.3V474.36h-3.23v-7h3.23Z" transform="translate(-48.41 -424.89)"/><path d="M731.61,467.33v4.51h.12q3-5.28,6.42-5.28a7.23,7.23,0,0,1,1.37.18v8.35a16.7,16.7,0,0,0-2.87-.26c-3.12,0-4.69,2-4.69,6.06v13.39h-8.49V467.33Z" transform="translate(-48.41 -424.89)"/><path d="M757.54,494.28v-3.55h-.12a13.68,13.68,0,0,1-3,3.37,5.56,5.56,0,0,1-3.41,1.09q-3.84,0-6.13-3.93T742.6,480.6q0-6.48,2.31-10.32t6.1-3.83a5.68,5.68,0,0,1,3.43,1,13.19,13.19,0,0,1,2.93,3.23h.11v-3.36H766v26.95Zm0-13.62c0-4.48-1.09-6.71-3.28-6.71s-3.31,2.23-3.31,6.71c0,4.64,1.14,7,3.43,7C756.49,487.63,757.54,485.3,757.54,480.66Z" transform="translate(-48.41 -424.89)"/><path d="M772.75,453h8.52v41.28h-8.52Z" transform="translate(-48.41 -424.89)"/><path d="M207.82,542.38V507.59h5.79v28.85h14.45v5.94Z" transform="translate(-48.41 -424.89)"/><path d="M244.29,534.31l5.47,1.13a10.79,10.79,0,0,1-3.42,5.68,8.78,8.78,0,0,1-5.66,1.86,8.64,8.64,0,0,1-7.13-3.1q-3-3.58-3-10.06t3-10.21a7.94,7.94,0,0,1,6.55-3.24,8.33,8.33,0,0,1,7,3.31q2.93,3.78,2.92,11.16l0,.77H236.22a7.57,7.57,0,0,0,1.36,4.68,3.89,3.89,0,0,0,3.15,1.66C242.51,538,243.69,536.74,244.29,534.31Zm.28-6.81A7.37,7.37,0,0,0,243.3,523a3.51,3.51,0,0,0-2.84-1.51,3.61,3.61,0,0,0-3,1.57,7,7,0,0,0-1.19,4.42Z" transform="translate(-48.41 -424.89)"/><path d="M253.23,529.31a15.38,15.38,0,0,1,1.49-6.8,11,11,0,0,1,3.87-4.61,9.8,9.8,0,0,1,5.39-1.53,9.21,9.21,0,0,1,7.89,3.94,15.2,15.2,0,0,1,2.87,9.22,16.48,16.48,0,0,1-1.49,7.09,11.26,11.26,0,0,1-3.93,4.76A9.52,9.52,0,0,1,264,543a9.76,9.76,0,0,1-7.7-3.55Q253.23,535.88,253.23,529.31Zm5.65.36a9.52,9.52,0,0,0,1.51,5.85,4.47,4.47,0,0,0,3.65,2,4.36,4.36,0,0,0,3.57-2,9.71,9.71,0,0,0,1.49-5.87,9.45,9.45,0,0,0-1.52-5.79,4.25,4.25,0,0,0-7.2,0A9.59,9.59,0,0,0,258.88,529.67Z" transform="translate(-48.41 -424.89)"/><path d="M298,542.38H292.5v-13a26.77,26.77,0,0,0-.32-5.19,3.45,3.45,0,0,0-1.16-2,3,3,0,0,0-1.92-.7,3.89,3.89,0,0,0-2.51.9,4.75,4.75,0,0,0-1.58,2.48,25.09,25.09,0,0,0-.46,6v11.52H279V517h5.12v3.71a9.87,9.87,0,0,1,3.07-3.23,7,7,0,0,1,3.79-1.08,6.57,6.57,0,0,1,4.08,1.26,6.39,6.39,0,0,1,2.3,3.23,19.83,19.83,0,0,1,.63,5.71Z" transform="translate(-48.41 -424.89)"/><path d="M307.74,524.7l-5-1.1a9.65,9.65,0,0,1,3-5.54,9.35,9.35,0,0,1,6-1.69,11.66,11.66,0,0,1,5.33,1,5.8,5.8,0,0,1,2.63,2.67q.79,1.69.79,6.14l-.05,7.86a32.66,32.66,0,0,0,.27,4.92,16.26,16.26,0,0,0,1,3.44h-5.46l-.71-2.78a10.35,10.35,0,0,1-3,2.53,7.35,7.35,0,0,1-3.43.85,6.57,6.57,0,0,1-5-2.05,7.63,7.63,0,0,1-1.94-5.45,8.44,8.44,0,0,1,.79-3.77,6.51,6.51,0,0,1,2.23-2.56,14.68,14.68,0,0,1,4.59-1.7,26.5,26.5,0,0,0,5.34-1.65,8.12,8.12,0,0,0-.3-2.78,2.35,2.35,0,0,0-1.1-1.08,4.85,4.85,0,0,0-2.27-.43,3.73,3.73,0,0,0-2.33.67A4.92,4.92,0,0,0,307.74,524.7Zm7.37,5.48a29.58,29.58,0,0,1-3.28,1,7.67,7.67,0,0,0-3.35,1.49,2.89,2.89,0,0,0-.79,2.11,3.59,3.59,0,0,0,.87,2.46,2.77,2.77,0,0,0,2.19,1,4,4,0,0,0,2.32-.81,4.21,4.21,0,0,0,1.59-1.9,12.07,12.07,0,0,0,.45-4Z" transform="translate(-48.41 -424.89)"/><path d="M331.25,542.38h-5.52V517h5.12v3.61a11,11,0,0,1,2.36-3.37,3.7,3.7,0,0,1,2.4-.84,6,6,0,0,1,3.61,1.27l-1.72,5.86a4.23,4.23,0,0,0-2.58-1.1,2.82,2.82,0,0,0-2,.85,5.63,5.63,0,0,0-1.25,3.08,56.21,56.21,0,0,0-.39,8.19Z" transform="translate(-48.41 -424.89)"/><path d="M360.68,542.38h-5.12v-3.73a9.33,9.33,0,0,1-3,3.24A6.61,6.61,0,0,1,349,543c-2.33,0-4.36-1.17-6.09-3.49s-2.59-5.65-2.59-10,.84-7.63,2.53-9.84a7.59,7.59,0,0,1,6.23-3.32,6.34,6.34,0,0,1,3.26.89,9.25,9.25,0,0,1,2.79,2.65V507.3h5.52ZM346,529.12a16.86,16.86,0,0,0,.59,5.15,5.29,5.29,0,0,0,1.67,2.54,3.67,3.67,0,0,0,5.6-1.11,10.67,10.67,0,0,0,1.33-5.93q0-4.39-1.3-6.32a3.75,3.75,0,0,0-6.55,0A9.94,9.94,0,0,0,346,529.12Z" transform="translate(-48.41 -424.89)"/><path d="M364.85,529.31a15.38,15.38,0,0,1,1.48-6.8,11,11,0,0,1,3.88-4.61,9.74,9.74,0,0,1,5.38-1.53,9.21,9.21,0,0,1,7.89,3.94,15.21,15.21,0,0,1,2.88,9.22,16.34,16.34,0,0,1-1.5,7.09,11.32,11.32,0,0,1-3.92,4.76,9.55,9.55,0,0,1-5.33,1.6,9.76,9.76,0,0,1-7.7-3.55Q364.85,535.88,364.85,529.31Zm5.64.36a9.59,9.59,0,0,0,1.51,5.85,4.48,4.48,0,0,0,3.65,2,4.36,4.36,0,0,0,3.57-2,9.71,9.71,0,0,0,1.49-5.87,9.45,9.45,0,0,0-1.51-5.79,4.45,4.45,0,0,0-3.62-2,4.4,4.4,0,0,0-3.59,2A9.59,9.59,0,0,0,370.49,529.67Z" transform="translate(-48.41 -424.89)"/><path d="M401.91,542.38V507.3h12.22q4.69,0,6.7.95a7.43,7.43,0,0,1,3.3,3.27,11.3,11.3,0,0,1,1.3,5.59,10.41,10.41,0,0,1-2,6.63,8.77,8.77,0,0,1-5.61,3.16,14.72,14.72,0,0,1,3.09,2.93,41.56,41.56,0,0,1,3.32,5.7l3.5,6.85h-6.93l-4.2-7.63a50.86,50.86,0,0,0-3.09-5.19,4.49,4.49,0,0,0-1.72-1.43,7.9,7.9,0,0,0-2.92-.4H407.7v14.65Zm5.79-20.24H412a21.58,21.58,0,0,0,5-.35,3.17,3.17,0,0,0,1.74-1.4,5.14,5.14,0,0,0,.67-2.8,4.79,4.79,0,0,0-.67-2.69,3.36,3.36,0,0,0-1.81-1.4,22.87,22.87,0,0,0-4.72-.26H407.7Z" transform="translate(-48.41 -424.89)"/><path d="M444.52,542.38v-3.8a8.77,8.77,0,0,1-3,3.23,7.21,7.21,0,0,1-3.89,1.17,6.39,6.39,0,0,1-6.11-4.15,16.19,16.19,0,0,1-.8-5.77V517h5.53v11.67a46.71,46.71,0,0,0,.25,6.36,3.51,3.51,0,0,0,1.11,2.09,3.07,3.07,0,0,0,2.07.74,3.9,3.9,0,0,0,2.56-1,4.51,4.51,0,0,0,1.54-2.49,37.05,37.05,0,0,0,.37-6.68V517h5.52v25.41Z" transform="translate(-48.41 -424.89)"/><path d="M455.33,513.86,458,506.7h6.22l-5.42,7.16Zm.07,28.52V517h5.53v25.41Z" transform="translate(-48.41 -424.89)"/><path d="M464.35,542.38v-5.24l7.82-10.94c1.28-1.78,2.23-3.05,2.83-3.8-.64.05-1.49.08-2.54.1l-7.34,0V517h17.22v4.76l-8,11.2-2.8,3.71c1.53-.12,2.48-.17,2.84-.17H483v5.91Z" transform="translate(-48.41 -424.89)"/><path d="M497.87,542.38V507.3h9.33a28.85,28.85,0,0,1,6.82.5,7.77,7.77,0,0,1,4.23,3.47,14.89,14.89,0,0,1,.22,13.22,8.3,8.3,0,0,1-3.59,3.62q-2.14,1-7.41,1h-3.81v13.23Zm5.79-29.14v10h3.22a14.18,14.18,0,0,0,4.4-.45,3.91,3.91,0,0,0,1.9-1.65,6,6,0,0,0,0-5.86,3.8,3.8,0,0,0-1.9-1.61,17.49,17.49,0,0,0-4.77-.4Z" transform="translate(-48.41 -424.89)"/><path d="M524.65,513.52V507.3h5.52v6.22Zm0,28.86V517h5.52v25.41Z" transform="translate(-48.41 -424.89)"/><path d="M554.77,542.38h-5.53v-13a27,27,0,0,0-.31-5.19,3.5,3.5,0,0,0-1.16-2,3,3,0,0,0-1.93-.7,3.93,3.93,0,0,0-2.51.9,4.81,4.81,0,0,0-1.58,2.48,25.82,25.82,0,0,0-.45,6v11.52h-5.53V517h5.12v3.71a10,10,0,0,1,3.08-3.23,7,7,0,0,1,3.79-1.08,6.57,6.57,0,0,1,4.08,1.26,6.37,6.37,0,0,1,2.29,3.23,19.43,19.43,0,0,1,.64,5.71Z" transform="translate(-48.41 -424.89)"/><path d="M572.47,534.31l5.48,1.13a10.79,10.79,0,0,1-3.42,5.68,8.78,8.78,0,0,1-5.66,1.86,8.64,8.64,0,0,1-7.13-3.1q-3-3.58-3-10.06t3-10.21a7.94,7.94,0,0,1,6.55-3.24,8.33,8.33,0,0,1,7,3.31q2.92,3.78,2.92,11.16l0,.77H564.41a7.51,7.51,0,0,0,1.36,4.68,3.89,3.89,0,0,0,3.15,1.66Q571.59,538,572.47,534.31Zm.29-6.81a7.37,7.37,0,0,0-1.27-4.48,3.51,3.51,0,0,0-2.84-1.51,3.61,3.61,0,0,0-2.95,1.57,7,7,0,0,0-1.19,4.42Z" transform="translate(-48.41 -424.89)"/><path d="M601.81,542.38h-5.12v-3.73a9.52,9.52,0,0,1-3,3.24,6.61,6.61,0,0,1-3.54,1.09c-2.33,0-4.36-1.17-6.09-3.49s-2.6-5.65-2.6-10,.84-7.63,2.53-9.84a7.61,7.61,0,0,1,6.24-3.32,6.37,6.37,0,0,1,3.26.89,9.11,9.11,0,0,1,2.78,2.65V507.3h5.53Zm-14.69-13.26a16.92,16.92,0,0,0,.58,5.15,5.36,5.36,0,0,0,1.67,2.54,3.86,3.86,0,0,0,2.45.85,3.8,3.8,0,0,0,3.15-2,10.66,10.66,0,0,0,1.34-5.93q0-4.39-1.31-6.32a3.85,3.85,0,0,0-3.3-1.94,3.92,3.92,0,0,0-3.25,1.9A10,10,0,0,0,587.12,529.12Z" transform="translate(-48.41 -424.89)"/><path d="M611.38,524.7l-5-1.1a9.65,9.65,0,0,1,3-5.54,9.36,9.36,0,0,1,6-1.69,11.63,11.63,0,0,1,5.33,1,5.8,5.8,0,0,1,2.63,2.67q.79,1.69.79,6.14l0,7.86a33,33,0,0,0,.26,4.92,16.26,16.26,0,0,0,1,3.44h-5.46l-.71-2.78a10.22,10.22,0,0,1-3,2.53,7.35,7.35,0,0,1-3.43.85,6.57,6.57,0,0,1-5-2.05,7.63,7.63,0,0,1-1.94-5.45,8.58,8.58,0,0,1,.79-3.77,6.51,6.51,0,0,1,2.23-2.56,14.78,14.78,0,0,1,4.59-1.7,26.5,26.5,0,0,0,5.34-1.65,8.12,8.12,0,0,0-.3-2.78,2.35,2.35,0,0,0-1.1-1.08,4.83,4.83,0,0,0-2.26-.43,3.74,3.74,0,0,0-2.34.67A4.92,4.92,0,0,0,611.38,524.7Zm7.37,5.48a29.58,29.58,0,0,1-3.28,1,7.73,7.73,0,0,0-3.35,1.49,2.89,2.89,0,0,0-.79,2.11,3.59,3.59,0,0,0,.87,2.46,2.78,2.78,0,0,0,2.19,1,4,4,0,0,0,2.32-.81,4.21,4.21,0,0,0,1.59-1.9,12.07,12.07,0,0,0,.45-4Z" transform="translate(-48.41 -424.89)"/></svg>